<?xml version="1.0" encoding="UTF-8"?>
<svg xmlns="http://www.w3.org/2000/svg" width="1200" height="706" viewBox="0 0 1200 706" role="img" aria-labelledby="title desc">
  <title id="title">Pomegr one-color dark logo</title>
  <desc id="desc">A crowned pomegranate above the wide Pomegr wordmark.</desc>
  <g transform="translate(306 -10) scale(1.15)">
    <g stroke="#994238" stroke-width="10" stroke-linecap="round" stroke-linejoin="round">
      <path d="M218 132C216 113 212 96 207 80C222 85 236 92 247 103C247 78 242 54 234 33C246 41 255 52 261 65C270 51 281 40 294 32C289 55 288 78 292 103C304 93 318 86 333 81C324 99 317 116 314 133C389 158 435 222 435 301C435 405 359 480 256 480C153 480 77 405 77 301C77 220 122 156 218 132Z" fill="none"/>
      <path d="M220 151C165 165 121 203 106 255C96 290 101 327 119 358C164 344 203 315 233 282C249 245 241 192 220 151Z" fill="#994238"/>
      <path d="M292 153C345 168 387 206 401 257C410 289 405 323 389 351C348 338 311 313 281 281C266 244 273 194 292 153Z" fill="none"/>
      <path d="M256 316C220 344 191 379 174 414C197 433 224 443 256 443C288 443 316 432 338 413C320 377 292 344 256 316Z" fill="none"/>
    </g>
    <g fill="#994238">
      <path d="M307 187C320 188 329 199 327 211C325 222 315 228 305 224C295 220 292 210 296 201C299 193 303 188 307 187Z"/><path d="M349 213C362 216 369 228 365 240C361 250 350 254 341 249C331 244 329 234 334 225C338 218 344 214 349 213Z"/><path d="M311 247C323 248 331 258 329 270C327 280 317 285 308 282C298 278 295 268 299 259C302 252 307 248 311 247Z"/><path d="M361 273C373 276 380 287 376 298C372 308 362 312 353 307C344 302 342 292 347 283C351 277 356 273 361 273Z"/><path d="M377 304C388 306 395 316 392 326C389 336 380 340 371 336C362 332 360 323 364 315C367 309 373 305 377 304Z"/><path d="M211 375C223 372 234 380 236 391C238 402 230 410 220 411C210 412 202 404 202 394C202 385 206 378 211 375Z"/><path d="M256 354C268 355 277 365 275 376C273 387 264 392 254 389C245 385 241 376 245 366C248 359 252 355 256 354Z"/><path d="M285 377C297 374 308 382 310 393C312 404 304 412 294 413C284 414 276 406 276 396C276 387 280 380 285 377Z"/>
    </g>
  </g>
  <g transform="translate(8 -16) scale(.85)" fill="none" stroke="#994238" stroke-width="13" stroke-linecap="round" stroke-linejoin="round">
    <path d="M100 820V680H183C225 680 251 700 251 733C251 766 225 786 183 786H100"/><path d="M390 675C340 675 309 704 309 750C309 796 340 825 390 825C440 825 471 796 471 750C471 704 440 675 390 675Z"/><path d="M550 820V680L625 762L700 680V820"/><path d="M790 680V820M790 680H916M790 750H891M790 820H916"/><path d="M1153 706C1138 686 1116 675 1087 675C1037 675 1006 704 1006 750C1006 796 1037 825 1087 825C1115 825 1138 815 1154 797V752H1096"/><path d="M1242 820V680H1304C1343 680 1366 699 1366 732C1366 764 1343 783 1304 783H1242M1303 783L1369 820"/>
  </g>
</svg>
